/* XPM */
static char * icon_xpm[] = {
"48 48 257 2",
"  	c None",
". 	c #021A2E",
"+ 	c #028E3A",
"@ 	c #026829",
"# 	c #069E42",
"$ 	c #024A1E",
"% 	c #967953",
"& 	c #744D29",
"* 	c #02461A",
"= 	c #896C48",
"- 	c #6B4D2C",
"; 	c #028842",
"> 	c #024E3A",
", 	c #583A20",
"' 	c #8A8E92",
") 	c #02321A",
"! 	c #816746",
"~ 	c #BAC68E",
"{ 	c #02462E",
"] 	c #664D36",
"^ 	c #021A4D",
"/ 	c #726C68",
"( 	c #5F4B2D",
"_ 	c #52412A",
": 	c #06265C",
"< 	c #D7BC96",
"[ 	c #026232",
"} 	c #6E665A",
"| 	c #443421",
"1 	c #0A3A7E",
"2 	c #382C1E",
"3 	c #AA8E65",
"4 	c #52824E",
"5 	c #BEA67E",
"6 	c #3E321E",
"7 	c #564E2E",
"8 	c #103E7A",
"9 	c #48464C",
"0 	c #023246",
"a 	c #1E6252",
"b 	c #154B84",
"c 	c #026E2E",
"d 	c #15579A",
"e 	c #02AA46",
"f 	c #302822",
"g 	c #027252",
"h 	c #3E455B",
"i 	c #06461E",
"j 	c #072662",
"k 	c #1D76C2",
"l 	c #0B3E8C",
"m 	c #5E6E86",
"n 	c #0B326A",
"o 	c #025E5A",
"p 	c #3E5226",
"q 	c #1A3E1E",
"r 	c #0B2E62",
"s 	c #02732F",
"t 	c #4E4E5A",
"u 	c #02A442",
"v 	c #BC9B6A",
"w 	c #1A66A8",
"x 	c #065E62",
"y 	c #324466",
"z 	c #027A32",
"A 	c #565252",
"B 	c #021E51",
"C 	c #1E3A1E",
"D 	c #262226",
"E 	c #40628E",
"F 	c #3A3632",
"G 	c #07327E",
"H 	c #A78A60",
"I 	c #745531",
"J 	c #0E428C",
"K 	c #E5C89E",
"L 	c #165290",
"M 	c #2E466E",
"N 	c #022616",
"O 	c #1D72BF",
"P 	c #2E4222",
"Q 	c #195EA0",
"R 	c #4E6A8E",
"S 	c #162A58",
"T 	c #06424E",
"U 	c #12467A",
"V 	c #025121",
"W 	c #06225F",
"X 	c #027E32",
"Y 	c #062A65",
"Z 	c #7B5934",
"` 	c #16356D",
" .	c #0E4A91",
"..	c #029C3F",
"+.	c #0A3671",
"@.	c #02221E",
"#.	c #12264E",
"$.	c #D1B691",
"%.	c #324622",
"&.	c #6E5E4A",
"*.	c #062E73",
"=.	c #32527E",
"-.	c #10468A",
";.	c #9A7E56",
">.	c #5EB266",
",.	c #12224C",
"'.	c #165EA9",
").	c #1B6EBB",
"!.	c #1356A2",
"~.	c #162E64",
"{.	c #035824",
"].	c #163266",
"^.	c #0A3A8B",
"/.	c #062259",
"(.	c #363E1E",
"_.	c #062A6C",
":.	c #7A746E",
"<.	c #AE8E63",
"[.	c #EBCFA3",
"}.	c #6C4426",
"|.	c #143C73",
"1.	c #12427A",
"2.	c #114D9B",
"3.	c #CBB08B",
"4.	c #028436",
"5.	c #0A3271",
"6.	c #02261E",
"7.	c #063A5E",
"8.	c #1E8A3A",
"9.	c #5A5E2E",
"0.	c #7A603F",
"a.	c #121E43",
"b.	c #0E468E",
"c.	c #C5A270",
"d.	c #8E7551",
"e.	c #164E8A",
"f.	c #028A38",
"g.	c #042245",
"h.	c #135296",
"i.	c #6A562A",
"j.	c #B69668",
"k.	c #0A3677",
"l.	c #4A3A25",
"m.	c #5E3E22",
"n.	c #68727E",
"o.	c #4E2E16",
"p.	c #2E2E46",
"q.	c #025F28",
"r.	c #1A222E",
"s.	c #02923A",
"t.	c #767E86",
"u.	c #C6AA86",
"v.	c #A3865F",
"w.	c #0A2E68",
"x.	c #0A3A86",
"y.	c #1966B1",
"z.	c #0E4296",
"A.	c #0A3278",
"B.	c #9E968A",
"C.	c #0A2A5E",
"D.	c #192745",
"E.	c #021E46",
"F.	c #1862AB",
"G.	c #06B24A",
"H.	c #4A622E",
"I.	c #021E58",
"J.	c #1A4A22",
"K.	c #664626",
"L.	c #87613A",
"M.	c #124691",
"N.	c #225896",
"O.	c #227EC9",
"P.	c #104A96",
"Q.	c #0E3E7E",
"R.	c #1A6AB6",
"S.	c #FAD6AA",
"T.	c #063C6E",
"U.	c #C9A674",
"V.	c #062E6E",
"W.	c #063656",
"X.	c #735A3B",
"Y.	c #0A2A64",
"Z.	c #185A9E",
"`.	c #0E3A7A",
" +	c #264A7E",
".+	c #DEC298",
"++	c #0E4283",
"@+	c #031641",
"#+	c #0E3677",
"$+	c #02B64A",
"%+	c #124275",
"&+	c #265292",
"*+	c #0E4292",
"=+	c #A28159",
"-+	c #0A265C",
";+	c #0D3B73",
">+	c #041A46",
",+	c #062667",
"'+	c #0A3E85",
")+	c #0E3670",
"!+	c #0A2255",
"~+	c #867A66",
"{+	c #061A4D",
"]+	c #122758",
"^+	c #164286",
"/+	c #5A442A",
"(+	c #0E326F",
"_+	c #CFAB76",
":+	c #122246",
"<+	c #806039",
"[+	c #124E94",
"}+	c #0A2A6A",
"|+	c #C29E6D",
"1+	c #1A5694",
"2+	c #0E3E83",
"3+	c #F2D1A6",
"4+	c #1C62A0",
"5+	c #76767A",
"6+	c #0A3682",
"7+	c #061E51",
"8+	c #12428B",
"9+	c #134A8E",
"0+	c #503E26",
"a+	c #124282",
"b+	c #36364E",
"c+	c #12529D",
"d+	c #025A42",
"e+	c #465E2A",
"f+	c #1862B2",
"g+	c #9D825B",
"h+	c #061E57",
"i+	c #806244",
"j+	c #155AA5",
"k+	c #114684",
"l+	c #62522E",
"m+	c #1F7AC6",
"n+	c #362E2E",
"o+	c #0E4695",
"p+	c #0A2E74",
"q+	c #164E8F",
"r+	c #0E3A7F",
"s+	c #0A2E6E",
"t+	c #826E4A",
"u+	c #B29266",
"v+	c #02963F",
"w+	c #1A5A97",
"x+	c #0B3266",
"y+	c #122E66",
"z+	c #665236",
"A+	c #42421E",
"B+	c #1E5E9A",
"C+	c #02AF47",
"D+	c #202E50",
"E+	c #20345A",
"F+	c #021A56",
"G+	c #02624A",
"H+	c #6C5436",
"@+#.#.S S ~.~.].` ` ` |.` |.` |.` ` ` ].].].~.y+~.S y+S S C.S ]+]+]+]+]+#.#.#.#.#.,.,.,.,.a.a.a.",
">+{+7+7+: : C.Y.w.w.(+s+5.p+(+s+5.s+}+w.,+,+,+-+: ,+W W /.h+I.I.I.F+^ ^ F+F+^ F+@+^ ^ @+@+@+@+@+",
">+{+g.!+-+: }+w.(+5.)+#+#+k.#+(+k.5.p+p+w.s+_._.Y j j j j W /.h+/.h+h+B F+{+{+B F+^ ^ @+@+@+@+@+",
"{+7+!+/.-+w.n p+(+(+k.6+#+#+6+1 #+A.5.5.*._.w.}+_.Y Y ,+j W j W h+W I.h+h+I.I.{+7+{+^ ^ ^ @+@+@+",
"7+7+!+-+Y.w.(+k.r+r+r+r+r+2+r+1 1 6+A.A.A.p+_.}+}+_.Y ,+Y j ,+j W W W W /.h+/.I.I.h+B {+{+>+@+@+",
"7+!+: C.r w.)+#+`.r+r+l 2+r+^.^.r+1 k.k.G *.p+*.*.s+}+}+}+,+,+,+W ,+W W W W I.h+/.I.h+B ^ ^ {+>+",
"7+!+/.C.x+(+)+`.8 J ++J 8+2+2+J 2+^.6+6+A.G p+*._.*._._._.Y Y 0 /.j ,+,+,+W W W /.h+/.7+7+^ >+>+",
"7+/.-+Y.r 5.r+r+2+a+8+8+*+z.8+l l 2+1 6+6+k.G A.p+_.*._._.0 { * g.,+: ,+,+: ,+W /.W h+I.F+{+^ @+",
"7+-+#.w.(++.`.8 2+8+M.M.8+*+8+l l ^.x.6+G A.G G p+_._.7.> {.V V g.,+,+,+,+,+: ,+W W W /.I.B B ^ ",
"!+!+Y.r n )+r+2+8+b.J *+M.o+*+z.J ^.x.6+6+G A.*.*.T.d+@ @ q.{.V g.,+,+W W ,+W W : ,+: /.I.{+^ {+",
"/.: -+w.5.`.r+2+8+M.M.o+M.M.o+l *+^.^.6+6+G *.T.G+s z s @ @ [ V g.W ,+,+W ,+,+,+,+W : /./.B ^ ^ ",
"!+!+C.w.(+k.Q.++8+M.M.9+o+o+z.*+l ^.6+6+6+1 o X 4.4.X s s c @ {.E.W W ,+,+,+,+,+,+,+W W /.h+B {+",
"!+-+C.x+)+#+2+++b.M.o+M.o+o+z.z.z.l ^.6+x ; + f.f.; 4.4.z s s {.E.I.I.,+,+Y ,+,+: ,+: W /.I.B B ",
"/.-+Y.w.5.r+8 J 8+o+M.o+o+z.o+l l ^.^.6+T @ 4.+ f.f.4.4.X X z q.^ I.W W ,+,+_.,+,+,+,+: W /.B {+",
"/.-+Y.w.5.`.r+J -.M.o+z.o+*+o+z.*+^.^.6+G W.[ s.+ + f.f.4.4.4.q.^ I.I.W ,+,+_._.Y ,+,+: /./.I.7+",
"/.: C.(+)+r+2+a+8+o+o+o+z.o+z.z.l '+^.G *.+.; s.+ + f.f.s.4.4.q.^ F+W ,+,+_._.,+,+,+,+,+W /./.B ",
"!+-+Y w.5.r+2+8+b.o+o+P.o+o+o+l l ^.^.6+*.g v+v+s.s.s.f.c 4.s.q.^ F+I.,+,+,+_._._.,+,+,+W /./.7+",
"/.Y C.5.)+`.2+J M. .P.o+o+o+z.z.l 6+6+G '+v+..v+v+v+f.$ N ) q.V @+I.W W _._._._._.Y ,+Y : /././.",
"!+C.Y.w.+.1 1 J M.o+ .o+o+o+z.l l 6+6+6+a u ......s.$ N @+@+E.@.F+F+W W _._.*._._._.Y Y ,+/././.",
"/.-+Y.s+A.#+2+l *+P.o+o+o+o+z.l ^.r+h ] 8.u ......V C ,.@+@+@+@+F+I.W ,+_._._._._.V._.Y Y : /./.",
"/.C.Y.w.k.r+2+J 8+P.P.o+o+z.z.J h - & i.# u u u @ q <+L.] p.F+F+I.I.,+,+_._.*.*.V.V._.Y Y Y : /.",
"/.-+Y.s+A.k.'+J M.M.P. .o+b.h ] & & }.9.u e u + * l+<+<+<+i+z+b+W W W ,+_.*.*.V.V._.V.Y Y : : : ",
"/.: w.w.k.k.x.J o+o+o+o+=.X.m.K.- - }.H.u C+e s %.Z Z Z Z <+<+Z I h (+_.*.*.*.*.*.V.V.V.r Y : : ",
"/.-+Y.s+A.1 '+l o+o+P.&+< < H & , m.m.e+C+e u V 7 & I I Z I Z ! d.% } *.*.*.G 5.5.V.5.V.Y Y : /.",
"/.j Y.s+A.k.'+l *+o+ .' < .+[.< % , o.p C+G.+ J.- ] - - - Z % H H ;.d.t V.V.5.5.5.5.V.V.Y Y Y : ",
": Y Y 5.k.1 1 l o+o+E 3.$.< .+K 3+3.i+A+u G.z P m./+m.I % u+j.<.=+% d.t+y 5.G 5.k.5.+.x+V.r Y : ",
"!+Y.Y.s+A.1 '+l o+P.t.5 3.$.< .+K 3+[.u.>.C+@ (., H+;.v c.v u+<.v.% d.! &.V.5.5.+.5.5.5.V.r C.: ",
": : _.s+k.6+r+J o+M.M.E B.3.< .+K K [.[.3+~ 4 7 =+U._+c.|+j.<.v.g+;.t+A E+V.V.5.A.k.+.n x+Y Y Y ",
"-+C.w.5.k.1 l *+o+M.o+*+a+~+5 < .+K K K K 3+U.! _+U.U.c.|+v u+H ;.&.D+/.: _.V.+.+.k.k.5.n x+Y.Y ",
"/.Y _.s+G x.'+J o+o+o+J l } d.3 3.K K [.[.[.! | <._+c.|+v v H = /+f h+W : V.5.5.k.+.1 +.5.r V.C.",
"!+Y.V.5.+.1 l o+P. . .J '+:.g+;.;.c..+K 3+5 z+/+0.c.U.U.v =+] | | 2 !+W -+Y n 5.k.k.+.+.n x+V.C.",
": : w.5.1 x.J *+P.P. .o+l :.j.u+3 =+H 3..+% 0.X.I =+U.H <+( /+_ | 6 /.-+_.w.5.;+1 `.1 +.+.x+r V.",
": Y w.5.1 '+J  .2. .2.P.o+5+c.|+|+j.<.H 3 ;.d.i+<+<+= I z+] /+0+| f W j V.5.k.k.'+8 8 ;++.+.x+r ",
"-+Y.n )+`.'+b.o+2.c+c+2. .n.c.U.c.|+v j.H v.;.t+i+<+X.X.] ( _ l.2 f : Y.s++.#+Q.8 '+1 #+;+)+x+r ",
": Y 5.+.Q.++o+ .c+c+!.c+c+m c.c.v v j.j.u+<.v.d.<+<+X.z+/+_ | 6 2 D j w.A.1 `.Q.Q.++%+1 ;+;+n x+",
"Y Y.n )+'+J  .2.c+!.!.!.c+E j.|+v j.j.u+3 H v.= 0.i.] ( _ l.6 f D r.Y.s++.1 Q.++1.Q.++8 ;+)+)+x+",
"Y r 5.)+'+-. .c+!.j+'.j+!.c+L n.u+u+<.<.H v.=+! I z+/+_ | 6 2 D r.,+w.+.`.Q.2+++k+a+U 1.8 ;+)+)+",
"-+Y.+.;+++-.[+c+j+'.'.'.j+!.[+J  +/ H v.v.g+;.0.] ( /+l.6 f r.W ,+w.s+k.Q.++k+-.-.k+a+1.8 ;+)+x+",
"Y Y n 1 Q.-. .c+j+'.f+f+'.j+!.P.b.1 M / ;.;.d.&./+_ l.6 S -+}+Y.Y.5.(+`.++a+-.b b b ^+U %+8 |.)+",
": r 5.;+++b.2.c+'.'.f+f+f+'.!.c+9+J r+k.M } d.z+0+F D+-+Y.}+}+V.5.+.`.Q.k+9+9+9+9+9+k+^+%+|.;+)+",
"Y r 5.1 Q. .h.!.'.F.y.f+y.f+'.!.c+ .J 2+6+#+y 9 D+_.w.s+V.5.5.k.1 Q.a+-.9+q+[+q+b 9+9+1.U 8 8 )+",
"-+V.+.;+++-.2.!.'.f+y.R.y.y.f+f+j+c+2.o+-.++r+`.k.5.A.5.k.k.1 Q.8 -.9+q+q+L L L q+e.b 9+1.%+;+;+",
"C.V.+.T.k+ .h.j+F.y.R.).).).R.y.f+j+!.c+[+ .++'+Q.1 1 r+1 2+++9+[+q+L h.h.1+L d q+h.b b 1.%+8 ;+",
": r )+Q.++ .c+!.F.R.R.R.).).).).R.f+F.j+!.c+[+M.J ++++-.9+9+[+[+L d j+Z.w+Z.w+1+1+q+e.9+b U |.|.",
"Y V.+.Q.++ .!.j+F.R.R.).O O O O O R.R.y.F.'.j+d c+h.[+[+!.d d j+Z.Z.Q B+Z.B+w+w+w+1+h.b b U 8 8 ",
"C.x++.T.k+ .c+'.y.R.).).k k k k k ).).R.y.y.'.j+j+Z.j+Q j+Z.'.'.F.F.Q F.4+B+B+w+1+1+L e.b b U 8 ",
"C.x+`.'+ .[+!.'.R.).O O k m+k m+m+O O O ).R.R.y.F.F.'.F.F.F.F.F.F.w 4+4+F.4+4+B+B+w+1+e.b U U %+",
"r x++.%+U  .!.'.R.O k k m+m+O.O.m+k k O ).O ).).R.R.R.y.y.R.w y.w 4+y.w w 4+4+4+w+w+1+L e.b U %+"};
