/* XPM */
static char * loki_logo_xpm[] = {
"99 39 70 1",
" 	c None",
".	c #FEFEFC",
"+	c #E6E6E4",
"@	c #CACACC",
"#	c #D2D2D4",
"$	c #F6F6F4",
"%	c #EAEAEC",
"&	c #F2F2F4",
"*	c #BEBEBC",
"=	c #CECECC",
"-	c #6A6A6C",
";	c #262624",
">	c #4E4E4C",
",	c #8A8A8C",
"'	c #626264",
")	c #6E6E6C",
"!	c #FAFAFC",
"~	c #3A3A3C",
"{	c #525254",
"]	c #1E1E1C",
"^	c #969694",
"/	c #E2E2E4",
"(	c #B2B2B4",
"_	c #929294",
":	c #363634",
"<	c #020204",
"[	c #424244",
"}	c #EEEEEC",
"|	c #AAAAAC",
"1	c #AEAEAC",
"2	c #5E5E5C",
"3	c #121214",
"4	c #B6B6B4",
"5	c #565654",
"6	c #DADADC",
"7	c #222224",
"8	c #56565C",
"9	c #DEDEDC",
"0	c #A6A6A4",
"a	c #323234",
"b	c #2E2E2C",
"c	c #9E9E9C",
"d	c #727274",
"e	c #7E7E7C",
"f	c #5A5A5C",
"g	c #464644",
"h	c #0E0E0C",
"i	c #0A0A0C",
"j	c #161614",
"k	c #666664",
"l	c #C2C2C4",
"m	c #C6C6CC",
"n	c #C6C6C4",
"o	c #060604",
"p	c #D6D6D4",
"q	c #1A1A1C",
"r	c #767674",
"s	c #868684",
"t	c #9A9A9C",
"u	c #8E8E8C",
"v	c #16161C",
"w	c #4A4A4C",
"x	c #2A2A2C",
"y	c #7A7A7C",
"z	c #828284",
"A	c #A2A2A4",
"B	c #3E3E3C",
"C	c #BABABC",
"D	c #66666C",
"E	c #6E6E74",
".....................+@#+.$%.....................&*=+%%%+@+........................................",
".....................-;;>,')!....................=;~>>{{>]^.................$/!....................",
".....................(_:<<<[&....................}|12<<<<34................/23-....................",
".......................^<<<5........................67<<<8...............90a<<b....................",
".......................c<<<d........................}[<<<e.............*f;<<g_6....................",
"......................._<<h4........................$><<i0............=j<ikl}......................",
".......................l3<hm......................../:<<3n............!(49.........................",
".......................0o<;&.........+=@nnllp6}.....#]<<q9.../**n@@@nl@#=@=@&......................",
".......................r<<g........@r:5s_tu{];g_9...li<<7%...,h]o33h<<h3j3ja6......................",
"......................!2<<)......62v<gp$...9r<<<;1..0<<<b&...9*=eo<<-di<<<h4.......................",
"......................&w<<,...../:<<g/.......0x<<]/.e<<<>.......#h<y..2<<<{........................",
"....................../a<<|....$e<<7+.........|<<<>$)<<<d......9[o_...1<<<g&.......................",
"......................@q<o*...!k<<i0..........+:<<o_5<<<z.....(7ht....*<<<[$.......................",
"......................1<<in...@<<<>!.....%.....43<<a~<<<0...9e<a4.....s<<<e........................",
".....................!)<<79...u<<<A..../zxf/...9x<<B[<<h*..1xoy%.....+b<<<[%.......................",
".....................&w<<x%...5<<<^...@x<<<f&..9b<<a:<<iC=>i<{.......0o<<<i6.......................",
".....................$5<<iC...r<<<2$..+fo<iy!..%B<<2B<<<qi<<<x6......${<<<>&.......................",
".....................}~<<qp...(o<<'!...!Ar1!...*h<i4g<<<52<<<<w+......e<<<e........................",
".....................&[<<a}...,<<<>$...........^<<e+:<<q}.,h<<<g%.....5<<o|........................",
".....................9]<<7/...9g<<oc..........$g<x$9q<<v6.._o<<<5/....f<<3@........................",
".....................*o<<<4....[<<<hA.........u<;l.lo<<o0...-<<<<~=...5<<i*........................",
".....................0<<<<-..&u<7b<<<d9.....#2owp..no<<<>%..+[<<<<q_$l3<<<2+!......................",
".....................4<<<<<y1w<<s/u[h<j-utu)xb_$...=h<<<<x-m.-<<<<<<^u<<<<<7y$.....................",
".....................&r;:BB~:]i7l..$4,f:BBBD1&.....4;~>{5g7t.yg5{{5>Ar<]>{55z$.....................",
"......................!6++%%96n#......!}}&&........}6/&$$}9$.$}$$$$$.4fl$$$........................",
"...................................................................................................",
"...................................................................................................",
"...................................................................................................",
"...................................................................................................",
"...................................................................................................",
"..........................9........./....^}........................................................",
".........................=o........{z....~#........................................................",
")znb.[C6;}8^(w.|w!x=ye...l<..A]ow%.gelu!.g#.(qqa_.!~<~%.2ao8a<{..tqh_.!goq|....@bi)..A]ow%.2ao8a<{.",
"c~z<(<%.7(ig-).6<(<,a(...m<.+ou#bE.g2h|..<n.7r#xz..@!bu.g8n<,l<#%olno+@<16/....a'm-.+ou#bd.g8n<,l<#",
"/o~ag~..'B:h~4..;B~Bo&...l<.l<..yg.g<<*..<l.<n.ge.9b<iz.gz.<n.<nn<<<<l!)iqC....<n...l<..yg.gz.<n.<n",
".xi1<e..|<z:i&..-<(<B.@f!n<.+ou=x).g88{..<m.;-pxz.sb&bz.gz.<n.<l+o0#=.$*}5g.@8$a2=d!+ou=;-.gz.<n.<n",
".r[}<l..}oldg...(i$:s.0q+l<..A]ow%.gz@o9.<l.(vvvz./bha_.ge.<l.<n.^qif!pb<q1.0]+mbiE..A]ow%.ge.<l.<l",
".............................................%uhl..................................................",
".............................................!y4..................................................."};
